<?xml version="1.0" standalone="no"?>
<!DOCTYPE svg PUBLIC "-//W3C//DTD SVG 20010904//EN"
 "http://www.w3.org/TR/2001/REC-SVG-20010904/DTD/svg10.dtd">
<svg version="1.0" xmlns="http://www.w3.org/2000/svg"
 width="751.000000pt" height="751.000000pt" viewBox="0 0 751.000000 751.000000"
 preserveAspectRatio="xMidYMid meet">
<metadata>
Created by potrace 1.14, written by Peter Selinger 2001-2017
</metadata>
<g transform="translate(0.000000,751.000000) scale(0.100000,-0.100000)"
fill="#000000" stroke="none">
<path d="M1072 6155 c-61 -19 -98 -42 -139 -89 -80 -91 -74 108 -73 -2302 0
-1182 2 -2165 3 -2184 1 -19 5 -37 8 -40 4 -3 16 -23 27 -46 11 -22 27 -46 36
-53 8 -7 12 -20 9 -29 -3 -12 -2 -13 4 -4 7 9 14 7 31 -8 12 -11 23 -20 24
-20 2 1 17 -4 33 -10 49 -19 66 -22 145 -24 41 -1 81 -6 89 -10 9 -6 12 -5 8
1 -8 12 193 11 213 -2 8 -5 11 -4 7 1 -8 13 136 12 145 -1 5 -6 8 -5 8 3 0 6
5 12 11 12 6 0 9 -6 6 -13 -3 -8 1 -14 8 -14 7 0 11 5 9 11 -6 15 348 16 358
1 5 -6 8 -5 8 3 0 6 4 12 10 12 5 0 7 -8 4 -17 -5 -14 -4 -15 4 -4 13 18 162
24 162 7 0 -8 3 -8 8 0 4 6 49 10 117 9 61 -1 127 2 147 5 22 4 42 3 49 -4 9
-8 10 -8 6 0 -4 7 8 18 32 27 21 9 46 23 55 32 9 9 24 18 34 19 9 2 17 11 17
22 0 10 5 19 12 19 6 0 15 4 20 9 5 5 3 6 -4 2 -16 -9 -16 -1 -2 25 5 11 13
18 17 15 4 -2 8 6 8 17 6 89 12 135 19 147 6 9 4 11 -6 5 -12 -7 -12 -6 -1 7
7 9 9 19 5 21 -10 6 -10 48 0 64 4 7 4 14 0 16 -11 7 -9 189 2 206 6 10 4 12
-6 6 -11 -7 -12 -6 -2 7 7 8 10 18 6 21 -9 10 -10 117 0 117 4 0 5 5 1 12 -12
19 -11 141 1 157 8 12 7 13 -5 6 -13 -7 -13 -6 -2 7 9 11 10 18 2 23 -7 4 -7
12 0 26 6 10 7 19 2 19 -5 0 -7 19 -5 42 5 53 5 58 0 83 -2 11 1 26 7 34 9 12
8 13 -4 6 -13 -7 -13 -6 -2 7 7 9 9 18 5 21 -11 7 -9 159 2 177 5 8 4 11 -1 7
-11 -6 -10 45 1 62 3 6 1 11 -6 11 -10 0 -10 3 -1 12 13 13 41 20 43 10 7 -35
4 -139 -5 -144 -8 -6 -8 -8 0 -8 6 0 12 -11 12 -25 0 -14 -5 -22 -11 -18 -6 4
-7 1 -1 -8 13 -21 13 -209 0 -209 -7 0 -8 -3 -1 -8 15 -10 17 -152 2 -152 -7
0 -6 -4 3 -10 13 -9 13 -11 0 -20 -8 -5 -10 -10 -4 -10 6 0 12 -11 12 -25 0
-14 -6 -25 -12 -25 -8 0 -8 -3 0 -8 15 -10 15 -215 0 -224 -8 -6 -7 -8 2 -8 6
0 12 -5 12 -11 0 -5 -5 -7 -12 -3 -7 5 -8 3 -2 -7 13 -21 13 -79 0 -79 -8 0
-8 -3 0 -8 15 -10 15 -202 0 -202 -6 0 -4 -5 4 -10 13 -9 13 -11 0 -20 -8 -5
-10 -10 -5 -10 6 0 16 -25 22 -55 11 -52 39 -102 75 -136 10 -9 15 -19 13 -23
-3 -3 -2 -4 1 -1 11 7 45 -15 39 -25 -4 -6 1 -7 11 -3 11 4 15 2 11 -4 -4 -6
1 -10 11 -9 10 0 16 -5 14 -13 -2 -11 0 -12 10 -3 9 7 26 8 51 2 20 -4 58 -7
84 -5 28 2 51 -2 55 -9 5 -7 8 -7 8 0 0 12 189 12 209 -1 9 -5 12 -4 8 1 -8
13 136 12 145 -1 5 -6 8 -5 8 3 0 6 5 12 11 12 6 0 9 -6 6 -13 -3 -8 1 -14 8
-14 7 0 11 5 9 11 -5 14 264 15 285 2 9 -6 12 -5 8 0 -8 13 136 12 145 -1 5
-6 8 -5 8 3 0 6 5 12 11 12 6 0 9 -6 6 -13 -3 -8 1 -14 8 -14 7 0 11 5 9 12
-5 13 44 14 65 1 9 -6 12 -5 7 2 -7 12 32 11 53 -3 9 -5 12 -4 8 2 -8 13 106
11 115 -2 5 -6 8 -5 8 3 0 6 5 12 11 12 5 0 8 -4 4 -9 -3 -5 -1 -13 5 -16 6
-4 9 -1 8 6 -2 6 3 14 11 17 10 3 11 0 5 -9 -6 -11 -5 -12 7 -3 8 5 29 9 47 9
17 -1 32 4 32 9 0 6 5 4 10 -4 5 -8 10 -10 10 -4 0 7 11 15 25 18 38 10 97 55
131 101 57 76 58 81 58 771 0 348 4 630 8 628 4 -3 8 -1 8 4 0 5 7 9 15 9 11
0 12 -3 3 -14 -9 -11 -8 -13 1 -11 10 2 13 -19 14 -83 0 -47 -3 -91 -7 -97 -4
-7 -4 -12 1 -12 10 0 9 -212 -1 -228 -4 -7 -4 -12 1 -12 10 0 9 -212 -1 -228
-4 -7 -4 -12 1 -12 10 0 9 -292 -1 -308 -4 -7 -4 -12 1 -12 4 0 8 -47 8 -105
0 -58 -4 -105 -9 -105 -5 0 -4 -6 1 -12 5 -7 9 -29 9 -50 -1 -20 2 -34 7 -31
6 3 9 -14 7 -42 -1 -3 6 -13 15 -21 8 -9 13 -20 10 -25 -4 -5 1 -9 9 -9 18 0
39 -34 28 -45 -4 -5 -2 -5 4 -2 7 4 23 -2 37 -14 34 -26 119 -52 177 -53 25
-1 51 -6 59 -10 9 -6 12 -5 7 2 -7 12 32 11 53 -3 9 -5 12 -4 8 1 -8 13 136
12 145 -1 5 -6 8 -6 8 1 0 13 78 12 99 -1 9 -5 12 -4 7 3 -7 12 32 11 53 -3 9
-5 12 -4 8 1 -8 13 136 12 145 -1 5 -6 8 -5 8 3 0 6 5 12 11 12 6 0 9 -6 6
-13 -3 -8 1 -14 8 -14 7 0 11 6 9 12 -5 13 44 14 65 0 9 -5 12 -4 7 3 -7 12
32 11 53 -3 9 -5 12 -4 8 1 -8 13 136 12 145 -1 5 -6 8 -5 8 3 0 6 5 12 11 12
6 0 9 -6 6 -13 -3 -8 1 -14 8 -14 7 0 11 5 9 12 -5 13 44 14 65 1 9 -6 12 -5
7 2 -7 12 32 11 53 -3 9 -5 12 -4 8 2 -7 11 82 11 100 0 6 -4 13 -3 17 0 12
12 96 11 89 -1 -4 -6 1 -5 10 3 9 7 23 11 32 8 8 -4 17 -2 20 4 4 5 10 7 15 4
5 -3 21 0 35 7 24 11 29 10 41 -7 8 -10 14 -14 14 -8 0 7 -5 15 -10 18 -6 4
-8 11 -4 16 3 5 10 7 15 4 5 -4 9 -2 9 4 0 5 9 13 20 16 11 4 18 10 15 15 -3
5 4 11 15 15 11 4 18 11 15 16 -4 5 -2 9 3 9 4 0 19 21 33 48 l24 47 3 2178
c2 1922 0 2184 -13 2230 -20 71 -88 147 -157 178 l-53 23 -2658 1 c-1931 1
-2667 -2 -2695 -10z"/>
<path d="M4846 1392 c-3 -5 1 -9 9 -9 8 0 12 4 9 9 -3 4 -7 8 -9 8 -2 0 -6 -4
-9 -8z"/>
<path d="M6530 1370 c0 -5 5 -10 11 -10 5 0 7 5 4 10 -3 6 -8 10 -11 10 -2 0
-4 -4 -4 -10z"/>
<path d="M4916 1348 c3 -5 10 -6 15 -3 13 9 11 12 -6 12 -8 0 -12 -4 -9 -9z"/>
<path d="M1140 1330 c-12 -7 -10 -9 7 -7 12 0 19 5 17 9 -6 10 -6 10 -24 -2z"/>
<path d="M1290 1330 c0 -5 5 -10 11 -10 5 0 7 5 4 10 -3 6 -8 10 -11 10 -2 0
-4 -4 -4 -10z"/>
<path d="M1370 1330 c0 -5 5 -10 11 -10 5 0 7 5 4 10 -3 6 -8 10 -11 10 -2 0
-4 -4 -4 -10z"/>
<path d="M1770 1330 c0 -5 5 -10 11 -10 5 0 7 5 4 10 -3 6 -8 10 -11 10 -2 0
-4 -4 -4 -10z"/>
<path d="M1850 1330 c0 -5 5 -10 11 -10 5 0 7 5 4 10 -3 6 -8 10 -11 10 -2 0
-4 -4 -4 -10z"/>
<path d="M2250 1330 c0 -5 5 -10 11 -10 5 0 7 5 4 10 -3 6 -8 10 -11 10 -2 0
-4 -4 -4 -10z"/>
<path d="M2330 1330 c0 -5 5 -10 11 -10 5 0 7 5 4 10 -3 6 -8 10 -11 10 -2 0
-4 -4 -4 -10z"/>
<path d="M2505 1330 c-3 -6 1 -7 9 -4 18 7 21 14 7 14 -6 0 -13 -4 -16 -10z"/>
<path d="M3210 1330 c0 -5 5 -10 11 -10 5 0 7 5 4 10 -3 6 -8 10 -11 10 -2 0
-4 -4 -4 -10z"/>
<path d="M3290 1330 c0 -5 5 -10 11 -10 5 0 7 5 4 10 -3 6 -8 10 -11 10 -2 0
-4 -4 -4 -10z"/>
<path d="M3690 1330 c0 -5 5 -10 11 -10 5 0 7 5 4 10 -3 6 -8 10 -11 10 -2 0
-4 -4 -4 -10z"/>
<path d="M3770 1330 c0 -5 5 -10 11 -10 5 0 7 5 4 10 -3 6 -8 10 -11 10 -2 0
-4 -4 -4 -10z"/>
<path d="M1486 1308 c3 -5 10 -6 15 -3 13 9 11 12 -6 12 -8 0 -12 -4 -9 -9z"/>
<path d="M1534 1312 c4 -3 14 -7 22 -8 9 -1 13 0 10 4 -4 3 -14 7 -22 8 -9 1
-13 0 -10 -4z"/>
<path d="M1934 1312 c4 -3 14 -7 22 -8 9 -1 13 0 10 4 -4 3 -14 7 -22 8 -9 1
-13 0 -10 -4z"/>
<path d="M2110 1310 c0 -5 5 -10 11 -10 5 0 7 5 4 10 -3 6 -8 10 -11 10 -2 0
-4 -4 -4 -10z"/>
<path d="M3406 1308 c3 -5 10 -6 15 -3 13 9 11 12 -6 12 -8 0 -12 -4 -9 -9z"/>
<path d="M3470 1310 c0 -5 5 -10 11 -10 5 0 7 5 4 10 -3 6 -8 10 -11 10 -2 0
-4 -4 -4 -10z"/>
<path d="M3886 1308 c3 -5 10 -6 15 -3 13 9 11 12 -6 12 -8 0 -12 -4 -9 -9z"/>
<path d="M3950 1310 c0 -5 5 -10 11 -10 5 0 7 5 4 10 -3 6 -8 10 -11 10 -2 0
-4 -4 -4 -10z"/>
<path d="M4206 1308 c3 -5 10 -6 15 -3 13 9 11 12 -6 12 -8 0 -12 -4 -9 -9z"/>
<path d="M4270 1310 c0 -5 5 -10 11 -10 5 0 7 5 4 10 -3 6 -8 10 -11 10 -2 0
-4 -4 -4 -10z"/>
<path d="M4450 1309 c0 -5 5 -7 10 -4 6 3 10 8 10 11 0 2 -4 4 -10 4 -5 0 -10
-5 -10 -11z"/>
<path d="M5166 1308 c3 -5 10 -6 15 -3 13 9 11 12 -6 12 -8 0 -12 -4 -9 -9z"/>
<path d="M5230 1310 c0 -5 5 -10 11 -10 5 0 7 5 4 10 -3 6 -8 10 -11 10 -2 0
-4 -4 -4 -10z"/>
<path d="M5486 1308 c3 -5 10 -6 15 -3 13 9 11 12 -6 12 -8 0 -12 -4 -9 -9z"/>
<path d="M5550 1310 c0 -5 5 -10 11 -10 5 0 7 5 4 10 -3 6 -8 10 -11 10 -2 0
-4 -4 -4 -10z"/>
<path d="M5806 1308 c3 -5 10 -6 15 -3 13 9 11 12 -6 12 -8 0 -12 -4 -9 -9z"/>
<path d="M5870 1310 c0 -5 5 -10 11 -10 5 0 7 5 4 10 -3 6 -8 10 -11 10 -2 0
-4 -4 -4 -10z"/>
<path d="M6126 1308 c3 -5 10 -6 15 -3 13 9 11 12 -6 12 -8 0 -12 -4 -9 -9z"/>
<path d="M6190 1310 c0 -5 5 -10 11 -10 5 0 7 5 4 10 -3 6 -8 10 -11 10 -2 0
-4 -4 -4 -10z"/>
<path d="M6350 1310 c0 -5 5 -10 11 -10 5 0 7 5 4 10 -3 6 -8 10 -11 10 -2 0
-4 -4 -4 -10z"/>
</g>
</svg>
